HIERARCHY
ROOT hips
{
	OFFSET 0.000000 104.274902 0.000000
	CHANNELS 6 Xposition Yposition Zposition Xrotation Yrotation Zrotation
	JOINT spine
	{
		OFFSET 0.000000 10.181549 0.131524
		CHANNELS 6 Xposition Yposition Zposition Xrotation Yrotation Zrotation
		JOINT chest
		{
			OFFSET 0.000000 9.893990 -1.470706
			CHANNELS 3 Xrotation Yrotation Zrotation
			JOINT upperChest
			{
				OFFSET 0.000000 9.220787 -1.370637
				CHANNELS 3 Xrotation Yrotation Zrotation
				JOINT neck
				{
					OFFSET 0.000000 16.740372 -2.049022
					CHANNELS 6 Xposition Yposition Zposition Xrotation Yrotation Zrotation
					JOINT head
					{
						OFFSET 0.000000 9.617859 1.684976
						CHANNELS 6 Xposition Yposition Zposition Xrotation Yrotation Zrotation
						JOINT headEnd
						{
							OFFSET 0.000000 22.037384 7.501072
							CHANNELS 6 Xposition Yposition Zposition Xrotation Yrotation Zrotation
							End Site
							{
								OFFSET 0.000000 23.106567 -2.828246
							}
						}
					}
				}
				JOINT rightShoulder
				{
					OFFSET -4.570000 11.014877 -2.160840
					CHANNELS 6 Xposition Yposition Zposition Xrotation Yrotation Zrotation
					JOINT rightUpperArm
					{
						OFFSET -10.592867 -0.524796 -2.232105
						CHANNELS 3 Xrotation Yrotation Zrotation
						JOINT rightLowerArm
						{
							OFFSET -27.841497 0.000000 -0.000002
							CHANNELS 3 Xrotation Yrotation Zrotation
							JOINT rightHand
							{
								OFFSET -28.328812 0.000000 -0.000001
								CHANNELS 3 Xrotation Yrotation Zrotation
								JOINT rightThumbProximal
								{
									OFFSET -2.464798 -1.573990 2.681911
									CHANNELS 6 Xposition Yposition Zposition Xrotation Yrotation Zrotation
									JOINT rightThumbIntermediate
									{
										OFFSET -3.244781 -1.873383 1.873376
										CHANNELS 3 Xrotation Yrotation Zrotation
										JOINT rightThumbDistal
										{
											OFFSET -2.646263 -1.527817 1.527818
											CHANNELS 6 Xposition Yposition Zposition Xrotation Yrotation Zrotation
											JOINT rightHandThumb4
											{
												OFFSET -1.994591 -1.151581 1.151575
												CHANNELS 6 Xposition Yposition Zposition Xrotation Yrotation Zrotation
												End Site
												{
													OFFSET -1.860176 -1.142715 1.365483
												}
											}
										}
									}
								}
								JOINT rightIndexProximal
								{
									OFFSET -9.108299 -0.517883 2.259803
									CHANNELS 6 Xposition Yposition Zposition Xrotation Yrotation Zrotation
									JOINT rightIndexIntermediate
									{
										OFFSET -3.699997 0.000000 0.000000
										CHANNELS 3 Xrotation Yrotation Zrotation
										JOINT rightIndexDistal
										{
											OFFSET -2.850006 0.000000 0.000000
											CHANNELS 3 Xrotation Yrotation Zrotation
											JOINT rightHandIndex4
											{
												OFFSET -2.772194 0.000000 0.000000
												CHANNELS 3 Xrotation Yrotation Zrotation
												End Site
												{
													OFFSET -2.772202 0.000000 -0.000484
												}
											}
										}
									}
								}
								JOINT rightMiddleProximal
								{
									OFFSET -9.532501 0.000000 -0.000000
									CHANNELS 6 Xposition Yposition Zposition Xrotation Yrotation Zrotation
									JOINT rightMiddleIntermediate
									{
										OFFSET -3.699997 0.000000 0.000000
										CHANNELS 3 Xrotation Yrotation Zrotation
										JOINT rightMiddleDistal
										{
											OFFSET -2.949997 0.000000 0.000000
											CHANNELS 3 Xrotation Yrotation Zrotation
											JOINT rightHandMiddle4
											{
												OFFSET -2.946594 0.000000 0.000000
												CHANNELS 3 Xrotation Yrotation Zrotation
												End Site
												{
													OFFSET -2.946602 0.000000 -0.000982
												}
											}
										}
									}
								}
								JOINT rightRingProximal
								{
									OFFSET -9.103600 -0.043106 -1.865100
									CHANNELS 6 Xposition Yposition Zposition Xrotation Yrotation Zrotation
									JOINT rightRingIntermediate
									{
										OFFSET -3.379303 0.000000 0.000000
										CHANNELS 3 Xrotation Yrotation Zrotation
										JOINT rightRingDistal
										{
											OFFSET -2.889694 0.000000 0.000000
											CHANNELS 3 Xrotation Yrotation Zrotation
											JOINT rightHandRing4
											{
												OFFSET -2.638802 0.000000 0.000000
												CHANNELS 3 Xrotation Yrotation Zrotation
												End Site
												{
													OFFSET -2.638802 0.000000 0.004218
												}
											}
										}
									}
								}
								JOINT rightLittleProximal
								{
									OFFSET -8.076698 -0.486725 -3.806299
									CHANNELS 6 Xposition Yposition Zposition Xrotation Yrotation Zrotation
									JOINT rightLittleIntermediate
									{
										OFFSET -3.600006 0.000000 0.000000
										CHANNELS 3 Xrotation Yrotation Zrotation
										JOINT rightLittleDistal
										{
											OFFSET -2.099998 0.000000 0.000000
											CHANNELS 3 Xrotation Yrotation Zrotation
											JOINT rightHandPinky4
											{
												OFFSET -2.115791 0.000000 0.000000
												CHANNELS 3 Xrotation Yrotation Zrotation
												End Site
												{
													OFFSET -2.115799 0.000000 0.000174
												}
											}
										}
									}
								}
							}
						}
					}
				}
				JOINT leftShoulder
				{
					OFFSET 4.570400 11.014679 -2.160816
					CHANNELS 6 Xposition Yposition Zposition Xrotation Yrotation Zrotation
					JOINT leftUpperArm
					{
						OFFSET 10.592373 -0.524597 -2.232116
						CHANNELS 3 Xrotation Yrotation Zrotation
						JOINT leftLowerArm
						{
							OFFSET 27.841488 0.000000 0.000001
							CHANNELS 3 Xrotation Yrotation Zrotation
							JOINT leftHand
							{
								OFFSET 28.328808 0.000000 -0.000000
								CHANNELS 3 Xrotation Yrotation Zrotation
								JOINT leftThumbProximal
								{
									OFFSET 2.466103 -1.576202 2.681698
									CHANNELS 6 Xposition Yposition Zposition Xrotation Yrotation Zrotation
									JOINT leftThumbIntermediate
									{
										OFFSET 3.243317 -1.872528 1.872530
										CHANNELS 3 Xrotation Yrotation Zrotation
										JOINT leftThumbDistal
										{
											OFFSET 2.647881 -1.528763 1.528754
											CHANNELS 6 Xposition Yposition Zposition Xrotation Yrotation Zrotation
											JOINT leftHandThumb4
											{
												OFFSET 1.998924 -1.154083 1.154080
												CHANNELS 6 Xposition Yposition Zposition Xrotation Yrotation Zrotation
												End Site
												{
													OFFSET 1.884041 -1.149155 1.337651
												}
											}
										}
									}
								}
								JOINT leftIndexProximal
								{
									OFFSET 9.109299 -0.518005 2.259900
									CHANNELS 6 Xposition Yposition Zposition Xrotation Yrotation Zrotation
									JOINT leftIndexIntermediate
									{
										OFFSET 3.699997 0.000000 0.000000
										CHANNELS 3 Xrotation Yrotation Zrotation
										JOINT leftIndexDistal
										{
											OFFSET 2.850006 0.000000 0.000000
											CHANNELS 3 Xrotation Yrotation Zrotation
											JOINT leftHandIndex4
											{
												OFFSET 2.774895 0.000000 0.000000
												CHANNELS 3 Xrotation Yrotation Zrotation
												End Site
												{
													OFFSET 2.774902 0.000000 -0.000072
												}
											}
										}
									}
								}
								JOINT leftMiddleProximal
								{
									OFFSET 9.533401 0.000000 0.000000
									CHANNELS 6 Xposition Yposition Zposition Xrotation Yrotation Zrotation
									JOINT leftMiddleIntermediate
									{
										OFFSET 3.699997 0.000000 0.000000
										CHANNELS 3 Xrotation Yrotation Zrotation
										JOINT leftMiddleDistal
										{
											OFFSET 2.949997 0.000000 0.000000
											CHANNELS 3 Xrotation Yrotation Zrotation
											JOINT leftHandMiddle4
											{
												OFFSET 2.952896 0.000000 0.000000
												CHANNELS 3 Xrotation Yrotation Zrotation
												End Site
												{
													OFFSET 2.952904 0.000000 0.000165
												}
											}
										}
									}
								}
								JOINT leftRingProximal
								{
									OFFSET 9.104500 -0.042999 -1.865101
									CHANNELS 6 Xposition Yposition Zposition Xrotation Yrotation Zrotation
									JOINT leftRingIntermediate
									{
										OFFSET 3.149994 0.000000 0.000000
										CHANNELS 3 Xrotation Yrotation Zrotation
										JOINT leftRingDistal
										{
											OFFSET 2.950005 0.000000 0.000000
											CHANNELS 3 Xrotation Yrotation Zrotation
											JOINT leftHandRing4
											{
												OFFSET 2.644302 0.000000 0.000000
												CHANNELS 3 Xrotation Yrotation Zrotation
												End Site
												{
													OFFSET 2.644302 0.000000 0.000083
												}
											}
										}
									}
								}
								JOINT leftLittleProximal
								{
									OFFSET 8.077805 -0.486893 -3.806302
									CHANNELS 6 Xposition Yposition Zposition Xrotation Yrotation Zrotation
									JOINT leftLittleIntermediate
									{
										OFFSET 3.600006 0.000000 0.000000
										CHANNELS 3 Xrotation Yrotation Zrotation
										JOINT leftLittleDistal
										{
											OFFSET 2.099998 0.000000 0.000000
											CHANNELS 3 Xrotation Yrotation Zrotation
											JOINT leftHandPinky4
											{
												OFFSET 2.125496 0.000000 0.000000
												CHANNELS 3 Xrotation Yrotation Zrotation
												End Site
												{
													OFFSET 2.125504 0.000000 -0.001254
												}
											}
										}
									}
								}
							}
						}
					}
				}
			}
		}
	}
	JOINT rightUpperLeg
	{
		OFFSET -8.207800 -6.751701 -1.599544
		CHANNELS 6 Xposition Yposition Zposition Xrotation Yrotation Zrotation
		JOINT rightLowerLeg
		{
			OFFSET 0.000004 -44.370152 0.345934
			CHANNELS 3 Xrotation Yrotation Zrotation
			JOINT rightFoot
			{
				OFFSET 0.000004 -44.423664 -3.043535
				CHANNELS 3 Xrotation Yrotation Zrotation
				JOINT rightToes
				{
					OFFSET 0.000001 -8.728691 10.710592
					CHANNELS 3 Xrotation Yrotation Zrotation
					JOINT rightToesEnd
					{
						OFFSET 0.000000 -0.000665 9.278101
						CHANNELS 3 Xrotation Yrotation Zrotation
						End Site
						{
							OFFSET 0.000000 -0.000665 9.278103
						}
					}
				}
			}
		}
	}
	JOINT leftUpperLeg
	{
		OFFSET 8.207800 -6.751701 -1.599544
		CHANNELS 6 Xposition Yposition Zposition Xrotation Yrotation Zrotation
		JOINT leftLowerLeg
		{
			OFFSET 0.000004 -44.370037 0.346940
			CHANNELS 3 Xrotation Yrotation Zrotation
			JOINT leftFoot
			{
				OFFSET 0.000004 -44.423611 -3.044388
				CHANNELS 3 Xrotation Yrotation Zrotation
				JOINT leftToes
				{
					OFFSET 0.000001 -8.728690 10.710592
					CHANNELS 3 Xrotation Yrotation Zrotation
					JOINT leftToesEnd
					{
						OFFSET 0.000000 -0.000680 9.278101
						CHANNELS 3 Xrotation Yrotation Zrotation
						End Site
						{
							OFFSET 0.000000 -0.000680 9.278101
						}
					}
				}
			}
		}
	}
}
MOTION
Frames: 4
Frame Time: 0.033333
0.478560 101.630875 1.555263 -0.893322 1.577732 -5.359103 0.000001 10.181546 0.131523 1.298039 -1.197538 3.016787 0.728742 0.264195 5.944685 0.710788 0.781492 5.851999 0.000002 16.740379 -2.049020 1.045307 -0.304693 -2.163988 -0.000002 9.617852 1.684973 1.584930 0.544179 -8.140495 0.000000 22.037338 7.501075 -0.000000 0.000000 -0.000000 -4.569998 11.014875 -2.160840 4.508129 3.324374 5.471592 -1.219694 0.655844 67.345412 -0.000009 17.736780 0.000010 -11.193113 -9.123280 10.139272 -2.464768 -1.573988 2.681908 18.491294 0.461458 -10.916087 1.284022 -32.757621 3.089008 -2.646268 -1.527798 1.527814 2.008720 -8.430478 1.114705 -1.994590 -1.151583 1.151577 -0.000000 -0.000006 -0.000000 -9.108287 -0.517870 2.259803 0.339561 -4.671352 7.844284 0.387039 -2.823579 20.566253 -0.193133 -0.216342 13.843930 -0.000000 -0.000000 0.000000 -9.532480 0.000012 -0.000001 0.912575 -8.769263 15.831743 0.919085 -3.991130 33.400424 0.216462 -1.688816 15.898035 0.000000 0.000000 0.000000 -9.103571 -0.043104 -1.865102 2.555821 -11.673029 26.909210 1.710649 -3.886775 40.215474 -0.157962 0.035285 17.815326 -0.000001 -0.000000 -0.000000 -8.076668 -0.486727 -3.806298 5.576074 -16.029165 36.940648 1.378683 -4.077641 45.645615 -0.727744 -0.247556 22.122737 -0.000001 -0.000001 0.000001 4.570406 11.014692 -2.160814 3.582357 -13.764044 -5.044480 4.032787 3.514253 -83.678348 -0.000010 -14.506750 0.000014 -27.592615 3.698772 -9.416207 2.466094 -1.576198 2.681695 18.491375 -0.461338 10.916059 1.284021 32.757604 -3.089003 2.647881 -1.528747 1.528744 2.117139 9.311169 -0.358620 1.998921 -1.154091 1.154073 -0.000001 -0.000003 0.000001 9.109299 -0.518012 2.259900 0.339561 4.671360 -7.844256 0.387003 2.823618 -20.566232 0.034612 0.816852 -10.169823 -0.000001 0.000000 -0.000005 9.533411 0.000004 0.000001 0.912556 8.769286 -15.831718 0.919048 3.991191 -33.400390 0.170547 1.488896 -12.264417 -0.000000 -0.000001 -0.000002 9.104502 -0.042995 -1.865101 2.555785 11.673074 -26.909180 1.710621 3.886854 -40.215461 0.544828 1.835097 -19.344144 0.000001 0.000000 0.000000 8.077798 -0.486891 -3.806304 5.576041 16.029240 -36.940614 1.378637 4.077721 -45.645601 0.486564 2.853425 -20.524724 0.000001 0.000001 0.000001 -8.207798 -6.751710 -1.599545 -1.603456 -4.966748 10.554079 12.445175 -5.083587 3.268284 -9.845040 1.009957 -7.756598 -0.548654 0.000004 -0.000000 0.000000 0.000002 0.000000 8.207797 -6.751708 -1.599545 -19.556138 10.813017 15.936467 22.044828 9.498142 2.339179 -1.490670 3.351053 -8.781917 -0.441962 -0.000009 0.000004 -0.000000 -0.000000 0.000000 
0.302135 101.723778 1.584636 -0.872195 1.362758 -5.252347 -0.000001 10.181543 0.131523 1.282335 -1.164409 2.891567 0.726216 0.276976 5.913107 0.708586 0.794175 5.820313 -0.000001 16.740376 -2.049021 0.993824 -0.344099 -2.134534 -0.000001 9.617855 1.684974 1.295141 1.488483 -7.088122 0.000000 22.037354 7.501073 0.000000 -0.000000 0.000000 -4.570000 11.014866 -2.160841 4.509219 3.311301 5.456563 -0.431235 -0.034681 67.449361 -0.000012 18.824561 -0.000002 -11.223977 -7.600171 10.841784 -2.464783 -1.573989 2.681909 18.491287 0.461458 -10.916097 1.284029 -32.757615 3.089023 -2.646256 -1.527811 1.527820 2.008718 -8.430470 1.114700 -1.994598 -1.151584 1.151579 -0.000001 -0.000005 -0.000000 -9.108287 -0.517874 2.259802 0.342175 -4.689983 8.030027 0.394667 -2.843786 20.780398 -0.192931 -0.221726 13.895449 0.000000 -0.000000 -0.000001 -9.532490 0.000011 -0.000002 0.923354 -8.785683 16.018733 0.930576 -4.009209 33.615339 0.217887 -1.693775 15.949605 -0.000000 -0.000000 -0.000001 -9.103598 -0.043107 -1.865103 2.576302 -11.684153 27.097987 1.726133 -3.901713 40.431209 -0.157489 0.030015 17.866827 -0.000000 0.000000 -0.000000 -8.076681 -0.486725 -3.806299 5.587753 -16.044039 37.129407 1.392810 -4.093923 45.860441 -0.727966 -0.253394 22.174195 0.000000 -0.000000 0.000001 4.570403 11.014688 -2.160813 3.585404 -13.746362 -5.014253 4.374468 2.942225 -83.589788 0.000021 -14.991857 0.000019 -28.600987 4.088634 -8.391318 2.466099 -1.576199 2.681698 18.491383 -0.461337 10.916072 1.284012 32.757608 -3.088993 2.647885 -1.528743 1.528754 2.117139 9.311159 -0.358622 1.998917 -1.154091 1.154070 -0.000000 0.000004 0.000003 9.109289 -0.518013 2.259902 0.345973 4.716482 -8.294641 0.405641 2.872580 -21.085567 0.036413 0.829393 -10.294742 -0.000000 0.000000 -0.000000 9.533411 0.000016 0.000001 0.938759 8.809049 -16.285160 0.947054 4.034953 -33.921492 0.173573 1.501019 -12.389419 -0.000001 -0.000001 0.000002 9.104497 -0.042991 -1.865100 2.605541 11.699963 -27.366953 1.748217 3.922977 -40.738564 0.550075 1.846354 -19.469207 0.000001 0.000000 -0.000000 8.077810 -0.486884 -3.806301 5.604538 16.065407 -37.398322 1.413041 4.117138 -46.166485 0.491733 2.864893 -20.649895 -0.000000 -0.000000 0.000002 -8.207797 -6.751719 -1.599545 -1.164404 -4.937838 10.585396 11.539744 -4.677861 3.241868 -9.405070 0.855119 -7.943546 -0.596470 -0.000003 0.000000 -0.000000 0.000000 0.000000 8.207800 -6.751701 -1.599543 -19.150641 10.861445 15.912404 21.358862 9.722510 2.250780 -1.138021 3.358010 -8.831424 -0.393467 0.000008 0.000002 0.000000 -0.000000 0.000000 
0.216170 101.812134 1.634720 -0.871865 1.077135 -5.108269 0.000001 10.181559 0.131524 1.265952 -1.141763 2.807338 0.722290 0.285702 5.894946 0.704851 0.802883 5.802080 -0.000000 16.740347 -2.049021 0.936888 -0.380529 -2.097030 0.000004 9.617858 1.684978 0.878302 2.531039 -6.083216 -0.000000 22.037369 7.501072 0.000000 -0.000000 -0.000000 -4.570000 11.014887 -2.160840 4.509676 3.296127 5.426592 0.434139 -0.868913 67.565310 -0.000006 20.111565 0.000042 -11.219879 -5.944194 11.670326 -2.464798 -1.573987 2.681901 18.491282 0.461458 -10.916111 1.284036 -32.757611 3.089024 -2.646262 -1.527818 1.527814 2.008720 -8.430473 1.114706 -1.994601 -1.151595 1.151571 -0.000000 -0.000002 0.000001 -9.108297 -0.517863 2.259804 0.349893 -4.742778 8.556955 0.416726 -2.900971 21.388048 -0.192333 -0.236988 14.041537 -0.000000 -0.000000 0.000003 -9.532500 0.000027 0.000003 0.954154 -8.831968 16.549332 0.963585 -4.060263 34.225002 0.221945 -1.707840 16.095913 0.000000 0.000000 -0.000000 -9.103600 -0.043088 -1.865101 2.634547 -11.715153 27.633632 1.770318 -3.943777 41.043273 -0.156110 0.015071 18.012903 -0.000000 0.000000 0.000000 -8.076693 -0.486707 -3.806295 5.621150 -16.086028 37.665003 1.433268 -4.139860 46.469902 -0.728550 -0.269908 22.320138 0.000001 0.000001 0.000001 4.570400 11.014717 -2.160817 3.587098 -13.733100 -5.010108 4.856247 2.108586 -83.466203 0.000007 -15.657558 -0.000002 -30.194125 4.566362 -6.926443 2.466071 -1.576199 2.681695 18.491368 -0.461338 10.916054 1.284006 32.757604 -3.088977 2.647872 -1.528743 1.528751 2.117141 9.311165 -0.358616 1.998924 -1.154091 1.154081 -0.000001 0.000002 0.000003 9.109280 -0.518008 2.259901 0.362299 4.821626 -9.345172 0.450882 2.986110 -22.297018 0.040696 0.858635 -10.586124 0.000002 0.000001 -0.000001 9.533396 0.000001 -0.000002 1.000943 8.900455 -17.343107 1.013918 4.136031 -35.137031 0.180728 1.529256 -12.680983 -0.000000 -0.000002 0.000001 9.104463 -0.042997 -1.865098 2.721909 11.760031 -28.434981 1.837208 4.005869 -41.958819 0.562397 1.872530 -19.760922 -0.000000 0.000001 0.000000 8.077798 -0.486891 -3.806298 5.671830 16.148350 -38.466300 1.494634 4.207839 -47.381579 0.503909 2.891642 -20.941859 0.000000 0.000000 0.000002 -8.207796 -6.751708 -1.599544 -0.764119 -4.967730 10.487323 10.805669 -4.335423 3.234212 -9.046732 0.891431 -8.039156 -0.640651 0.000003 -0.000002 -0.000000 -0.000001 -0.000000 8.207800 -6.751701 -1.599543 -18.744997 11.040992 15.877186 20.775690 9.721279 2.061925 -0.887700 3.544949 -8.771326 -0.356673 -0.000003 0.000003 -0.000000 -0.000000 0.000000 
0.262016 101.878242 1.701229 -0.886034 0.730716 -4.931086 0.000000 10.181563 0.131524 1.253656 -1.139305 2.769780 0.718222 0.286419 5.892749 0.700810 0.803648 5.799877 0.000004 16.740376 -2.049019 0.875494 -0.405181 -2.037373 -0.000002 9.617848 1.684975 0.347814 3.701236 -5.119907 0.000002 22.037384 7.501071 -0.000000 -0.000000 -0.000000 -4.569997 11.014863 -2.160840 4.509705 3.278836 5.385363 1.370247 -1.812505 67.672647 -0.000005 21.576120 0.000031 -11.206804 -4.188125 12.567397 -2.464798 -1.573998 2.681905 18.491274 0.461449 -10.916101 1.284035 -32.757615 3.089031 -2.646274 -1.527801 1.527819 2.008716 -8.430474 1.114692 -1.994594 -1.151586 1.151578 0.000001 -0.000003 0.000001 -9.108302 -0.517883 2.259803 0.362897 -4.825056 9.379655 0.452421 -2.989773 22.336790 -0.191347 -0.260804 14.269615 -0.000000 0.000000 0.000002 -9.532495 -0.000004 -0.000000 1.003025 -8.903397 17.377835 1.016184 -4.139250 35.176960 0.228358 -1.729771 16.324277 0.000000 -0.000000 0.000001 -9.103609 -0.043109 -1.865106 2.725774 -11.761892 28.470052 1.840200 -4.008483 41.998898 -0.153886 -0.008275 18.240956 0.000000 -0.000001 0.000000 -8.076679 -0.486724 -3.806298 5.674111 -16.150985 38.501411 1.497384 -4.210698 47.421454 -0.729378 -0.295739 22.547988 0.000000 -0.000000 -0.000001 4.570403 11.014656 -2.160814 3.586356 -13.731924 -5.038310 5.486320 0.998251 -83.309955 -0.000004 -16.505152 -0.000008 -32.463554 5.055511 -4.997865 2.466099 -1.576218 2.681695 18.491369 -0.461338 10.916044 1.284012 32.757615 -3.088984 2.647887 -1.528742 1.528759 2.117150 9.311160 -0.358638 1.998897 -1.154077 1.154065 -0.000000 -0.000000 0.000002 9.109299 -0.518016 2.259902 0.391485 4.983948 -10.973857 0.525669 3.160116 -24.175103 0.047650 0.903922 -11.037785 -0.000001 0.000000 0.000000 9.533417 0.000021 0.000003 1.100303 9.038754 -18.983614 1.121809 4.289833 -37.021592 0.192091 1.572958 -13.132924 0.000002 -0.000000 0.000001 9.104486 -0.043001 -1.865099 2.903277 11.846616 -30.091047 1.978627 4.130588 -43.850672 0.581751 1.912981 -20.213077 -0.000001 0.000000 -0.000000 8.077808 -0.486888 -3.806297 5.779406 16.274522 -40.122731 1.624900 4.344971 -49.265444 0.523024 2.932926 -21.394405 -0.000002 -0.000000 0.000000 -8.207795 -6.751712 -1.599544 -0.553434 -5.042617 10.243795 10.511154 -4.179353 3.213251 -8.897062 1.189832 -7.976381 -0.685165 0.000003 0.000000 -0.000000 -0.000001 0.000000 8.207800 -6.751686 -1.599543 -18.402357 11.297010 15.792128 20.420753 9.655756 1.816816 -0.808071 3.794055 -8.624571 -0.359881 -0.000017 -0.000005 -0.000000 -0.000002 0.000000 
